<svg id="visual" viewBox="0 0 960 300" width="960" height="300" xmlns="http://www.w3.org/2000/svg" xmlns:xlink="http://www.w3.org/1999/xlink" version="1.1"><rect x="0" y="0" width="960" height="300" fill="#121212"></rect><path d="M0 209L22.8 202C45.7 195 91.3 181 137 184.3C182.7 187.7 228.3 208.3 274 218.8C319.7 229.3 365.3 229.7 411.2 229.8C457 230 503 230 548.8 221.2C594.7 212.3 640.3 194.7 686 196.2C731.7 197.7 777.3 218.3 823 226.5C868.7 234.7 914.3 230.3 937.2 228.2L960 226L960 0L937.2 0C914.3 0 868.7 0 823 0C777.3 0 731.7 0 686 0C640.3 0 594.7 0 548.8 0C503 0 457 0 411.2 0C365.3 0 319.7 0 274 0C228.3 0 182.7 0 137 0C91.3 0 45.7 0 22.8 0L0 0Z" fill="#9e9b3e"></path><path d="M0 188L22.8 188.2C45.7 188.3 91.3 188.7 137 181.5C182.7 174.3 228.3 159.7 274 156.8C319.7 154 365.3 163 411.2 169.5C457 176 503 180 548.8 173.3C594.7 166.7 640.3 149.3 686 143C731.7 136.7 777.3 141.3 823 143.5C868.7 145.7 914.3 145.3 937.2 145.2L960 145L960 0L937.2 0C914.3 0 868.7 0 823 0C777.3 0 731.7 0 686 0C640.3 0 594.7 0 548.8 0C503 0 457 0 411.2 0C365.3 0 319.7 0 274 0C228.3 0 182.7 0 137 0C91.3 0 45.7 0 22.8 0L0 0Z" fill="#9e9238"></path><path d="M0 97L22.8 99.5C45.7 102 91.3 107 137 113.8C182.7 120.7 228.3 129.3 274 127.7C319.7 126 365.3 114 411.2 108.3C457 102.7 503 103.3 548.8 106.2C594.7 109 640.3 114 686 111.8C731.7 109.7 777.3 100.3 823 107.2C868.7 114 914.3 137 937.2 148.5L960 160L960 0L937.2 0C914.3 0 868.7 0 823 0C777.3 0 731.7 0 686 0C640.3 0 594.7 0 548.8 0C503 0 457 0 411.2 0C365.3 0 319.7 0 274 0C228.3 0 182.7 0 137 0C91.3 0 45.7 0 22.8 0L0 0Z" fill="#9d8933"></path><path d="M0 63L22.8 68.3C45.7 73.7 91.3 84.3 137 88.3C182.7 92.3 228.3 89.7 274 91.7C319.7 93.7 365.3 100.3 411.2 98.3C457 96.3 503 85.7 548.8 80.3C594.7 75 640.3 75 686 80.5C731.7 86 777.3 97 823 103C868.7 109 914.3 110 937.2 110.5L960 111L960 0L937.2 0C914.3 0 868.7 0 823 0C777.3 0 731.7 0 686 0C640.3 0 594.7 0 548.8 0C503 0 457 0 411.2 0C365.3 0 319.7 0 274 0C228.3 0 182.7 0 137 0C91.3 0 45.7 0 22.8 0L0 0Z" fill="#9b802f"></path><path d="M0 63L22.8 57.2C45.7 51.3 91.3 39.7 137 38.3C182.7 37 228.3 46 274 51.2C319.7 56.3 365.3 57.7 411.2 57.3C457 57 503 55 548.8 50.5C594.7 46 640.3 39 686 36.3C731.7 33.7 777.3 35.3 823 37.5C868.7 39.7 914.3 42.3 937.2 43.7L960 45L960 0L937.2 0C914.3 0 868.7 0 823 0C777.3 0 731.7 0 686 0C640.3 0 594.7 0 548.8 0C503 0 457 0 411.2 0C365.3 0 319.7 0 274 0C228.3 0 182.7 0 137 0C91.3 0 45.7 0 22.8 0L0 0Z" fill="#99782c"></path></svg>